<?xml version="1.0" encoding="utf-8"?>
<!DOCTYPE svg PUBLIC "-//W3C//DTD SVG 1.0//EN" "http://www.w3.org/TR/2001/REC-SVG-20010904/DTD/svg10.dtd">
<svg version="1.0" xmlns="http://www.w3.org/2000/svg" width="229px" height="51px" viewBox="0 0 229 51" preserveAspectRatio="xMidYMid meet">
 <g fill="#fefbff">
  <path d="M0 25.63 l0 -25.63 114.50 0 114.50 0 0 25.63 0 25.63 -114.50 0 -114.50 0 0 -25.63z m164.23 21.37 c0.27 -0.12 0.67 -0.37 0.91 -0.56 0.43 -0.34 1.09 -1.35 0.99 -1.51 -0.03 -0.04 -0.19 -0.09 -0.35 -0.09 -0.25 0 -0.33 0.07 -0.45 0.34 -0.18 0.45 -0.68 1.01 -1.10 1.24 -0.51 0.28 -2.02 0.25 -2.58 -0.05 -0.52 -0.28 -0.95 -0.76 -1.26 -1.42 -0.19 -0.42 -0.22 -0.68 -0.22 -1.98 0 -1.35 0.02 -1.55 0.26 -2.05 0.30 -0.68 1.01 -1.37 1.57 -1.52 0.23 -0.06 0.72 -0.12 1.09 -0.12 1.07 0 1.75 0.37 2.17 1.21 0.20 0.40 0.43 0.48 0.74 0.30 0.13 -0.09 0.09 -0.19 -0.20 -0.62 -1.45 -2.11 -4.40 -1.98 -5.83 0.29 -0.51 0.81 -0.72 1.67 -0.67 2.72 0.06 1.27 0.35 2.01 1.11 2.82 1.10 1.20 2.53 1.56 3.85 0.98z m24.50 0 c1.22 -0.46 2.16 -1.64 2.52 -3.17 0.61 -2.63 -1.43 -5.32 -3.91 -5.14 -1.84 0.12 -3.31 1.59 -3.66 3.64 -0.29 1.72 0.68 3.74 2.17 4.50 1.04 0.52 1.82 0.58 2.88 0.17z m15.02 -0.13 c1.24 -0.59 2.03 -1.69 2.31 -3.19 0.23 -1.24 -0.25 -2.84 -1.15 -3.85 -0.21 -0.23 -0.68 -0.58 -1.05 -0.75 -2.30 -1.13 -4.76 0.29 -5.35 3.07 -0.36 1.73 0.47 3.73 1.91 4.57 1.10 0.64 2.21 0.69 3.33 0.15z m8.69 0.11 c0.27 -0.12 0.66 -0.35 0.88 -0.52 0.31 -0.25 0.50 -0.32 0.88 -0.32 l0.49 0 0 -1.66 0 -1.66 -1.55 0 -1.55 0 0 0.32 0 0.32 1.17 0 1.17 0 0 0.91 0 0.90 -0.53 0.53 c-0.66 0.66 -1.09 0.81 -2.24 0.80 -1.08 -0.01 -1.58 -0.22 -2.18 -0.91 -0.59 -0.69 -0.76 -1.32 -0.76 -2.82 0 -1.10 0.03 -1.36 0.25 -1.81 0.60 -1.30 1.32 -1.77 2.75 -1.77 1.22 0 1.91 0.38 2.47 1.34 0.09 0.15 0.18 0.18 0.41 0.12 l0.30 -0.07 -0.27 -0.45 c-0.58 -0.99 -1.89 -1.64 -3.12 -1.55 -3.13 0.26 -4.76 4.15 -2.88 6.88 1.03 1.48 2.82 2.07 4.33 1.42z m-54.49 -0.12 l0.03 -0.30 -2.35 0 -2.36 0 0 -1.66 0 -1.66 1.85 0 c2.14 0 2.32 -0.03 2.32 -0.38 l0 -0.26 -1.75 0 c-0.96 0 -1.90 -0.03 -2.08 -0.06 l-0.33 -0.06 0 -1.54 0 -1.54 2.24 0 2.24 0 0 -0.32 0 -0.32 -2.67 0 -2.67 0 0 4.14 c0 2.29 0.03 4.19 0.07 4.23 0.04 0.03 1.27 0.05 2.75 0.04 l2.68 -0.03 0.03 -0.29z m39.73 0 l0.03 -0.30 -2.08 0 -2.09 0 -0.02 -3.87 -0.03 -3.88 -0.37 0 -0.37 0 -0.03 4.06 c-0.01 2.23 0 4.12 0.03 4.20 0.03 0.11 0.59 0.13 2.48 0.11 l2.44 -0.03 0.03 -0.29z m-49.11 -3.61 l0 -3.85 1.29 0 1.28 0 -0.03 -0.29 -0.03 -0.30 -3.01 -0.03 -3.02 -0.02 0 0.32 0 0.31 1.31 0.03 1.30 0.03 0.03 3.82 0.02 3.81 0.43 0 0.43 0 0 -3.85z m20.08 1.93 l0 -1.92 0.57 -0.06 c0.30 -0.03 1.32 -0.05 2.26 -0.03 l1.71 0.03 0.03 1.95 0.02 1.94 0.43 0 0.43 0 0 -4.17 0 -4.17 -0.43 0 -0.43 0 0 1.87 0 1.87 -2.30 0 -2.30 0 0 -1.88 0 -1.87 -0.40 0.03 -0.41 0.03 -0.03 4.14 -0.02 4.13 0.43 0 0.43 0 0 -1.91z m8.01 -1.19 l0 -3.10 0.37 0 c0.36 0 0.41 0.05 0.97 0.94 0.33 0.51 1.23 1.90 2.01 3.10 l1.40 2.16 0.40 0 0.41 0 0 -4.18 0 -4.17 -0.40 0.03 -0.41 0.03 0.02 3.08 0.01 3.07 -0.41 0 c-0.35 0 -0.44 -0.05 -0.63 -0.37 -0.12 -0.21 -1 -1.61 -1.95 -3.11 l-1.72 -2.72 -0.44 0.03 -0.44 0.03 -0.03 4.14 -0.02 4.13 0.43 0 0.43 0 0 -3.10z m42.83 1.25 l0 -1.85 1.21 -1.92 c0.66 -1.05 1.31 -2.09 1.45 -2.31 l0.25 -0.41 -0.37 0 c-0.35 0 -0.37 0.03 -1.39 1.75 -0.57 0.96 -1.07 1.83 -1.10 1.92 -0.04 0.12 -0.19 0.17 -0.47 0.17 l-0.40 0 -0.98 -1.70 c-1.23 -2.14 -1.26 -2.17 -1.69 -2.13 l-0.34 0.03 0.65 1.01 c0.36 0.56 1.01 1.59 1.44 2.29 l0.78 1.28 0 1.68 c0 0.93 0.03 1.75 0.06 1.85 0.04 0.12 0.20 0.17 0.48 0.17 l0.42 0 0 -1.85z m-90.47 -13.01 c1.64 -0.23 3.61 -1.06 4.88 -2.04 1.67 -1.27 2.83 -3.64 2.83 -5.74 0 -1.53 -0.66 -3.21 -1.72 -4.40 -1.06 -1.20 -2.51 -2.01 -5.67 -3.19 -1.89 -0.72 -3.04 -1.25 -3.62 -1.70 -0.78 -0.60 -1.11 -2.08 -0.66 -3.05 0.27 -0.59 0.93 -1.15 1.68 -1.45 0.53 -0.20 0.89 -0.25 2.25 -0.29 1.85 -0.05 2.57 0.04 4.08 0.54 0.57 0.18 1.07 0.33 1.12 0.34 0.09 0 0.94 -2.84 1.09 -3.65 l0.06 -0.33 -1.15 -0.37 c-1.94 -0.63 -2.85 -0.77 -4.87 -0.75 -2.63 0.03 -4.48 0.49 -6.27 1.55 -1.23 0.74 -2.48 2.16 -3.03 3.45 -1.13 2.68 -0.25 5.75 2.20 7.58 1.06 0.80 2.16 1.35 4.59 2.30 3.11 1.20 3.67 1.53 4.21 2.42 0.27 0.46 0.30 0.61 0.30 1.42 -0.01 1.05 -0.18 1.51 -0.79 2.11 -0.88 0.85 -2.04 1.14 -4.35 1.06 -2.10 -0.07 -3.49 -0.42 -5.20 -1.27 -0.23 -0.12 -0.44 -0.19 -0.46 -0.16 -0.02 0.02 -0.28 0.85 -0.58 1.85 -0.29 1 -0.56 1.90 -0.60 2 -0.04 0.14 0.07 0.23 0.57 0.45 2.96 1.31 6.01 1.75 9.11 1.32z m-109.50 -2.04 l0.02 -2.11 -5.38 0 -5.38 0 -0.07 -0.77 c-0.03 -0.43 -0.05 -1.98 -0.03 -3.45 l0.03 -2.67 4.89 -0.03 4.88 -0.02 -0.02 -2.01 -0.03 -2 -4.88 -0.03 -4.89 -0.02 0 -3.19 0 -3.18 0.41 -0.07 c0.21 -0.03 2.50 -0.06 5.06 -0.06 l4.68 0 0.02 -1.90 0.03 -1.89 0.48 -0.03 0.48 -0.03 0.46 1.53 c0.26 0.84 1.46 4.74 2.69 8.68 1.23 3.94 2.55 8.19 2.94 9.45 1.21 3.93 1.78 5.71 1.89 5.85 0.09 0.10 0.82 0.13 3.27 0.11 l3.15 -0.03 1.91 -5.87 c1.06 -3.23 2.92 -8.93 4.13 -12.66 l2.21 -6.78 0.50 -0.03 0.50 -0.03 0 12.71 0 12.72 7.72 0 c4.24 0 7.82 -0.03 7.96 -0.06 0.23 -0.06 0.23 -0.09 0.23 -2.14 l0 -2.07 -5.28 0 -5.27 0 -0.07 -0.40 c-0.03 -0.22 -0.06 -1.76 -0.06 -3.42 l0 -3.02 4.69 0 c2.58 0 4.76 -0.03 4.86 -0.06 0.15 -0.05 0.17 -0.34 0.17 -2.08 l0 -2.02 -4.80 0 -4.79 0 -0.06 -1.73 c-0.03 -0.96 -0.04 -2.41 -0.04 -3.24 l0.02 -1.50 5.11 -0.03 5.09 -0.02 0 -2.14 0 -2.14 -10.91 0.02 -10.92 0.03 -1.11 3.90 c-1.59 5.60 -3.50 12.48 -4.03 14.53 l-0.46 1.76 -0.37 0.03 -0.37 0.03 -0.46 -1.79 c-0.46 -1.81 -1.78 -6.78 -3.67 -13.81 -0.56 -2.08 -1.07 -3.99 -1.13 -4.24 l-0.12 -0.46 -11.04 0 -11.05 0 0 13.03 0 13.03 8.10 -0.02 8.09 -0.03 0.03 -2.10z m47.12 -2.82 l0 -4.98 1.79 0.04 c1.67 0.03 1.82 0.05 2.19 0.29 0.91 0.57 1.08 0.97 2.47 6.10 0.44 1.61 0.84 3.08 0.91 3.24 l0.12 0.30 2.66 -0.03 c1.46 -0.02 2.69 -0.05 2.71 -0.09 0.03 -0.03 -0.11 -0.53 -0.31 -1.12 -0.21 -0.59 -0.74 -2.32 -1.17 -3.85 -0.48 -1.64 -0.97 -3.13 -1.23 -3.65 -0.48 -1.01 -1.35 -2.01 -2.07 -2.39 -0.44 -0.23 -0.48 -0.29 -0.48 -0.65 0 -0.38 0.03 -0.42 0.64 -0.72 1.94 -0.97 3.09 -2.39 3.63 -4.54 0.41 -1.61 0.20 -3.32 -0.61 -4.98 -0.29 -0.60 -0.60 -1.01 -1.25 -1.66 -0.96 -0.96 -1.82 -1.46 -3.21 -1.90 -1.66 -0.52 -2.77 -0.59 -8.99 -0.52 l-3.02 0.02 0 12.96 c0 7.13 0.03 13 0.07 13.03 0.03 0.04 1.22 0.07 2.62 0.07 l2.54 0 0 -4.98z m26.17 4.72 c3.83 -0.62 6.31 -2.34 7.35 -5.09 1.20 -3.20 -0.46 -6.76 -3.67 -7.91 l-0.69 -0.25 0.03 -0.43 c0.03 -0.42 0.05 -0.44 0.83 -0.85 2.68 -1.43 3.70 -4.42 2.45 -7.20 -0.85 -1.89 -2.40 -3.03 -5.04 -3.72 l-1.09 -0.29 -5.31 -0.03 -5.32 -0.04 0 12.97 c0 7.12 0.03 13 0.09 13.05 0.14 0.15 9.26 -0.02 10.38 -0.20z m25.46 0.19 c0.19 -0.07 0.22 -1.05 0.10 -3.07 l-0.06 -1.14 -5.26 0 -5.26 0 -0.07 -0.49 c-0.03 -0.28 -0.06 -1.82 -0.06 -3.42 l0 -2.93 4.84 -0.02 4.83 -0.03 0.03 -2.05 0.02 -2.06 -4.86 0 -4.86 0 0 -3.20 0 -3.20 5.11 -0.02 5.09 -0.03 0.03 -2.16 0.02 -2.17 -7.74 0 -7.74 0 0 0.62 c-0.03 6.15 0.02 25.28 0.06 25.35 0.06 0.11 15.52 0.14 15.79 0.03z m30.40 -10.83 l0.05 -10.84 3.56 -0.03 3.55 -0.02 -0.02 -2.17 -0.03 -2.16 -9.69 0 c-5.32 0 -9.70 0.02 -9.72 0.05 -0.03 0.03 -0.03 1 0 2.17 l0.04 2.10 3.46 0 3.46 0 0 10.82 c0 5.96 0.03 10.86 0.07 10.91 0.04 0.03 1.23 0.05 2.64 0.04 l2.57 -0.03 0.05 -10.84z m28.84 9.72 l0 -1.17 -5.52 -0.02 -5.53 -0.03 -0.03 -11.88 -0.02 -11.89 -1.55 0 -1.55 0 0 13.01 c0 7.16 0.03 13.05 0.07 13.08 0.03 0.04 3.24 0.07 7.10 0.07 l7.03 0 0 -1.17z m4.79 1.09 c0.11 -0.07 0.13 -2.76 0.11 -13.06 l-0.03 -12.97 -1.55 0 -1.55 0 -0.03 12.97 c-0.02 10.31 0 12.99 0.11 13.06 0.07 0.04 0.74 0.09 1.47 0.09 0.74 0 1.40 -0.04 1.47 -0.09z m7.80 -10.46 l0.02 -10.50 0.42 0 c0.41 0 0.44 0.03 0.77 0.62 0.32 0.56 3.59 5.91 8.17 13.37 0.98 1.61 2.36 3.86 3.03 4.97 l1.24 2.03 1.52 0.03 1.52 0.03 0 -13.09 0 -13.08 -1.44 0 -1.44 0 0 10.21 0 10.20 -0.40 -0.03 c-0.41 -0.03 -0.42 -0.04 -1.67 -2.11 -0.69 -1.14 -1.98 -3.24 -2.85 -4.65 -0.87 -1.41 -2.60 -4.22 -3.85 -6.25 -1.25 -2.03 -2.78 -4.52 -3.41 -5.52 l-1.13 -1.85 -1.67 0 -1.67 0 -0.07 2.60 c-0.09 2.89 -0.07 22.41 0.02 23.12 l0.05 0.46 1.40 -0.03 1.40 -0.03 0.03 -10.49z m23.41 5.33 l0.05 -5.16 1.01 -1.22 1.01 -1.23 0.49 0 0.50 0 1.79 2.76 c0.98 1.51 2.77 4.26 3.96 6.11 1.20 1.85 2.28 3.49 2.39 3.66 l0.21 0.29 1.59 0 1.59 0 -4.90 -7.36 c-4.36 -6.53 -4.91 -7.41 -4.91 -7.78 0 -0.37 0.23 -0.68 2.95 -3.93 1.61 -1.93 3.61 -4.33 4.43 -5.32 l1.48 -1.78 -1.54 0 -1.54 0 -0.36 0.46 c-0.51 0.63 -3.63 4.45 -6.80 8.35 -2.49 3.04 -2.73 3.31 -3.07 3.34 l-0.36 0.03 -0.02 -6.07 -0.03 -6.07 -1.52 -0.03 -1.53 -0.03 0 13.02 c0 7.16 0.03 13.05 0.07 13.09 0.04 0.03 0.73 0.05 1.52 0.04 l1.45 -0.03 0.05 -5.16z"/>
  <path d="M186.65 46.58 c-1.19 -0.31 -1.88 -1.23 -2.09 -2.75 -0.27 -1.91 0.27 -3.54 1.39 -4.19 0.45 -0.27 0.59 -0.29 1.56 -0.29 0.97 0 1.11 0.03 1.56 0.29 0.47 0.28 0.84 0.74 1.15 1.42 0.20 0.44 0.28 2.52 0.12 3.29 -0.16 0.78 -0.67 1.54 -1.29 1.92 -0.40 0.25 -0.65 0.31 -1.28 0.34 -0.44 0.02 -0.93 0.01 -1.11 -0.04z"/>
  <path d="M201.46 46.57 c-0.95 -0.20 -1.69 -0.92 -2 -1.95 -0.21 -0.72 -0.21 -2.53 0 -3.26 0.21 -0.70 0.75 -1.40 1.34 -1.73 0.42 -0.23 0.61 -0.27 1.50 -0.27 0.92 0 1.06 0.03 1.53 0.30 0.85 0.50 1.31 1.43 1.43 2.87 0.14 1.77 -0.47 3.26 -1.57 3.82 -0.46 0.23 -1.59 0.34 -2.22 0.21z"/>
  <path d="M66.65 14.43 l0 -4.28 0.29 -0.06 c0.43 -0.11 3.32 0.04 3.93 0.20 1.53 0.42 2.31 1.36 2.52 3.08 0.21 1.77 -0.27 3.50 -1.20 4.30 -0.25 0.20 -0.76 0.50 -1.15 0.67 -0.66 0.28 -0.82 0.30 -2.54 0.33 l-1.85 0.04 0 -4.28z"/>
  <path d="M87.69 24.62 l0 -4.01 1.95 0 c2.06 0 2.76 0.11 3.70 0.56 1.04 0.50 1.68 1.52 1.78 2.87 0.12 1.42 -0.27 2.65 -1.05 3.35 -1 0.91 -2.23 1.23 -4.74 1.23 l-1.64 0 0 -4.01z"/>
  <path d="M87.69 13.55 l0 -3.52 2.22 0.03 c2.05 0.03 2.25 0.05 2.77 0.29 0.66 0.29 1.34 0.98 1.54 1.57 0.10 0.25 0.15 0.84 0.15 1.48 -0.01 1.21 -0.22 1.86 -0.83 2.49 -0.88 0.92 -1.85 1.20 -4.18 1.20 l-1.67 0 0 -3.54z"/>
 </g>
 <g fill="#702c6e">
  <path d="M125.15 32.68 c-1.19 -0.11 -2.47 -0.35 -3.49 -0.66 -1.06 -0.32 -2.78 -1.06 -2.78 -1.19 0 -0.21 1.30 -4.61 1.40 -4.71 0.05 -0.05 0.49 0.09 1.06 0.35 1.93 0.90 3.01 1.17 4.87 1.26 1.51 0.06 2.13 -0.02 3.09 -0.45 1.50 -0.66 2.14 -2.26 1.40 -3.51 -0.52 -0.89 -1.10 -1.23 -4.20 -2.41 -2.44 -0.95 -3.54 -1.50 -4.59 -2.30 -1.26 -0.94 -2.19 -2.34 -2.54 -3.80 -0.31 -1.35 -0.17 -3.21 0.34 -4.42 0.56 -1.29 1.81 -2.71 3.03 -3.45 0.92 -0.54 2.37 -1.09 3.50 -1.32 1.46 -0.30 4.80 -0.33 6.15 -0.05 0.94 0.19 3.07 0.84 3.34 1.01 0.11 0.07 0.01 0.53 -0.44 2.11 -0.32 1.11 -0.62 2.18 -0.66 2.37 -0.05 0.27 -0.12 0.35 -0.25 0.31 -0.11 -0.03 -0.64 -0.22 -1.21 -0.44 -1.59 -0.58 -2.56 -0.74 -4.14 -0.68 -1.06 0.04 -1.47 0.11 -1.98 0.30 -1.07 0.42 -1.87 1.35 -1.88 2.19 0 0.48 0.45 1.36 0.87 1.67 0.58 0.45 1.73 0.98 3.62 1.70 3.16 1.19 4.61 2 5.67 3.19 0.63 0.70 1.29 1.95 1.55 2.89 0.25 0.93 0.25 2.69 0 3.68 -0.40 1.58 -1.47 3.29 -2.66 4.20 -1.24 0.95 -2.99 1.71 -4.61 2 -1.15 0.19 -3.19 0.27 -4.46 0.16z"/>
  <path d="M2.99 19.33 l0 -13.35 11.38 0 11.36 0 0.12 0.46 c0.06 0.25 0.58 2.16 1.13 4.24 1.89 7.03 3.21 12.01 3.67 13.81 0.26 0.98 0.49 1.75 0.53 1.71 0.04 -0.04 0.20 -0.61 0.36 -1.26 0.36 -1.45 2.44 -8.94 4.05 -14.63 l1.22 -4.27 11.24 -0.03 11.23 -0.02 0 2.46 0 2.46 -5.09 0.02 -5.08 0.03 0 1.87 c0 1.03 0.01 2.34 0.02 2.92 l0.01 1.04 4.81 0 4.81 0 0 2.34 c0 2.03 -0.02 2.35 -0.17 2.40 -0.10 0.03 -2.28 0.06 -4.86 0.06 l-4.69 0 0 2.70 c0 1.47 0.03 2.87 0.06 3.10 l0.07 0.40 5.27 0 5.28 0 0 2.39 c0 2.39 0 2.39 -0.23 2.46 -0.14 0.03 -3.87 0.06 -8.28 0.06 l-8.04 0 0 -12.72 c0 -11.89 -0.01 -12.71 -0.18 -12.68 -0.14 0.02 -0.70 1.64 -2.39 6.81 -1.22 3.73 -3.08 9.43 -4.13 12.66 l-1.91 5.87 -3.47 0.03 c-2.70 0.02 -3.50 -0.01 -3.59 -0.11 -0.11 -0.14 -0.68 -1.92 -1.89 -5.85 -0.38 -1.26 -1.71 -5.51 -2.94 -9.45 -1.23 -3.94 -2.44 -7.84 -2.69 -8.68 -0.34 -1.15 -0.49 -1.52 -0.62 -1.50 -0.14 0.03 -0.16 0.32 -0.16 1.93 l0.01 1.89 -4.71 0 c-2.58 0 -4.88 0.03 -5.09 0.06 l-0.41 0.07 0 2.86 0 2.87 4.89 0.02 4.88 0.03 0.03 2.32 0.02 2.33 -4.88 0.02 -4.89 0.03 -0.03 2.35 c-0.02 1.29 0 2.70 0.03 3.13 l0.07 0.77 5.38 0 5.38 0 -0.02 2.44 -0.03 2.42 -8.41 0.03 -8.42 0.02 0 -13.35z"/>
  <path d="M61.16 32.59 c-0.03 -0.05 -0.06 -6.05 -0.06 -13.32 l0 -13.23 3.81 -0.07 c5.46 -0.12 7.10 -0.02 8.84 0.52 1.40 0.44 2.25 0.94 3.21 1.90 1.42 1.41 2.07 3.08 2.07 5.29 0 3.03 -1.31 5.27 -3.85 6.53 -0.35 0.17 -0.64 0.35 -0.64 0.40 0 0.04 0.21 0.19 0.48 0.33 0.73 0.38 1.59 1.38 2.07 2.39 0.26 0.52 0.75 2.01 1.23 3.65 0.44 1.53 1.01 3.40 1.28 4.15 0.27 0.76 0.46 1.41 0.43 1.44 -0.03 0.03 -1.45 0.07 -3.15 0.10 l-3.09 0.04 -0.12 -0.31 c-0.06 -0.16 -0.47 -1.62 -0.91 -3.24 -1.39 -5.13 -1.56 -5.53 -2.47 -6.10 -0.36 -0.23 -0.54 -0.26 -1.87 -0.29 l-1.47 -0.04 0 4.98 0 4.98 -2.87 0 c-1.59 0 -2.91 -0.04 -2.94 -0.10z m9.56 -14.58 c0.40 -0.16 0.91 -0.46 1.15 -0.66 0.88 -0.76 1.36 -2.31 1.17 -3.82 -0.19 -1.54 -1.04 -2.52 -2.49 -2.91 -0.63 -0.16 -2.92 -0.31 -3.31 -0.21 l-0.28 0.06 0 3.96 0 3.96 1.53 -0.04 c1.36 -0.04 1.59 -0.07 2.22 -0.34z"/>
  <path d="M82.12 32.63 c-0.05 -0.05 -0.09 -6.07 -0.09 -13.37 l0 -13.29 5.64 0.04 5.63 0.03 1.09 0.29 c2.64 0.68 4.19 1.83 5.04 3.72 0.17 0.37 0.36 0.94 0.43 1.25 0.17 0.80 0.15 2.33 -0.04 3.07 -0.38 1.47 -1.42 2.77 -2.83 3.52 -0.43 0.23 -0.80 0.48 -0.82 0.53 -0.02 0.06 0.28 0.22 0.66 0.35 2.79 1 4.42 3.80 4.03 6.92 -0.46 3.66 -3.13 5.99 -7.71 6.73 -0.76 0.12 -2.28 0.18 -5.98 0.22 -2.73 0.03 -5 0.02 -5.04 -0.02z m9.35 -4.48 c1.39 -0.27 2.47 -0.97 2.94 -1.91 0.89 -1.78 0.26 -3.96 -1.38 -4.75 -0.90 -0.43 -1.66 -0.56 -3.38 -0.56 l-1.63 0 0 3.68 0 3.68 1.32 0 c0.73 0 1.69 -0.06 2.13 -0.15z m-0.10 -11.56 c1.70 -0.44 2.66 -1.58 2.67 -3.19 0 -0.41 -0.06 -0.94 -0.14 -1.16 -0.20 -0.59 -0.88 -1.28 -1.54 -1.57 -0.50 -0.23 -0.74 -0.26 -2.45 -0.29 l-1.90 -0.04 0 3.21 0 3.21 1.35 0 c0.88 0 1.58 -0.06 2.01 -0.17z"/>
  <path d="M102.17 32.60 c-0.04 -0.06 -0.11 -22.71 -0.07 -26 l0.01 -0.62 8.06 0 8.06 0 -0.02 2.49 -0.03 2.48 -5.11 0.03 -5.11 0.02 0.02 2.88 0.01 2.88 4.85 0 4.85 0 -0.02 2.38 -0.03 2.37 -4.83 0.03 -4.84 0.02 0 2.61 c0 1.43 0.03 2.82 0.06 3.10 l0.07 0.49 5.26 0 5.26 0 0.06 1.14 c0.04 0.62 0.07 1.70 0.07 2.38 0 1.05 -0.03 1.27 -0.17 1.32 -0.26 0.10 -16.36 0.07 -16.43 -0.02z"/>
  <path d="M143.09 32.61 c-0.04 -0.03 -0.07 -4.93 -0.07 -10.89 l0 -10.82 -3.49 0 -3.50 0 -0.02 -2.45 -0.01 -2.45 0.87 -0.07 c0.48 -0.03 5.01 -0.05 10.06 -0.03 l9.19 0.03 0.03 2.48 0.02 2.49 -3.55 0.02 -3.56 0.03 -0.05 10.84 -0.05 10.84 -2.89 0.03 c-1.59 0.01 -2.92 -0.01 -2.96 -0.05z"/>
 </g>
 <g fill="#000101">
  <path d="M161.92 47.50 c-0.83 -0.25 -1.26 -0.51 -1.86 -1.15 -0.93 -1 -1.34 -2.47 -1.13 -4.08 0.21 -1.71 1 -2.92 2.34 -3.58 0.54 -0.26 0.70 -0.29 1.77 -0.29 1 0 1.25 0.03 1.66 0.25 0.83 0.41 1.68 1.39 1.87 2.17 0.06 0.28 0.05 0.29 -0.64 0.41 -0.40 0.07 -0.74 0.12 -0.75 0.10 -0.01 -0.02 -0.13 -0.22 -0.25 -0.46 -0.91 -1.79 -3.31 -1.56 -4.20 0.41 -0.22 0.48 -0.26 0.73 -0.26 1.73 0 0.96 0.04 1.26 0.22 1.66 0.50 1.08 1.27 1.63 2.29 1.63 0.92 0 1.54 -0.43 2.03 -1.41 l0.22 -0.46 0.50 0.07 c0.76 0.11 0.98 0.17 0.98 0.29 0 0.06 -0.17 0.44 -0.40 0.85 -0.65 1.25 -1.70 1.91 -3.13 1.98 -0.45 0.01 -1.01 -0.03 -1.28 -0.11z"/>
  <path d="M186.46 47.53 c-1.12 -0.29 -2.09 -1.08 -2.64 -2.17 -0.42 -0.84 -0.57 -1.66 -0.50 -2.75 0.15 -2.61 1.81 -4.27 4.23 -4.27 2.38 0 3.95 1.61 4.13 4.22 0.16 2.15 -0.93 4.12 -2.63 4.77 -0.66 0.25 -1.97 0.34 -2.60 0.19z m2.28 -1.58 c0.99 -0.60 1.46 -1.78 1.36 -3.39 -0.07 -1.26 -0.52 -2.11 -1.35 -2.60 -0.41 -0.23 -0.62 -0.29 -1.24 -0.29 -0.62 0 -0.83 0.05 -1.24 0.29 -1.06 0.62 -1.59 2.07 -1.37 3.66 0.31 2.20 2.17 3.32 3.83 2.32z"/>
  <path d="M201.12 47.48 c-0.80 -0.23 -1.39 -0.60 -1.95 -1.23 -0.90 -1 -1.31 -2.78 -1 -4.29 0.49 -2.42 2.08 -3.71 4.41 -3.59 0.72 0.04 1 0.11 1.57 0.38 1.46 0.73 2.32 2.30 2.32 4.27 0 2.57 -1.58 4.42 -3.90 4.56 -0.59 0.03 -1.04 0 -1.44 -0.11z m2.30 -1.46 c1.07 -0.57 1.72 -2.23 1.46 -3.72 -0.32 -1.79 -1.45 -2.82 -2.89 -2.63 -1.43 0.19 -2.36 1.50 -2.36 3.32 0 1.76 0.83 3.01 2.16 3.24 0.56 0.10 1.20 0.01 1.63 -0.21z"/>
  <path d="M210.15 47.50 c-2.02 -0.52 -3.15 -2.15 -3.15 -4.51 0 -2.08 0.85 -3.57 2.46 -4.32 0.78 -0.35 2.28 -0.45 3.12 -0.18 1.08 0.34 2 1.25 2.18 2.18 0.07 0.36 0.16 0.31 -1.04 0.50 -0.23 0.03 -0.31 -0.01 -0.42 -0.26 -0.17 -0.41 -0.72 -0.93 -1.20 -1.12 -0.90 -0.37 -2.22 -0.04 -2.79 0.70 -0.57 0.74 -0.76 1.35 -0.77 2.38 0 1.15 0.21 1.86 0.76 2.50 0.53 0.62 1.11 0.89 1.91 0.90 0.82 0 1.31 -0.21 1.92 -0.83 0.45 -0.47 0.48 -0.53 0.48 -1.08 l0 -0.58 -1.17 0 -1.17 0 0 -0.64 0 -0.64 1.87 0 1.87 0 -0.02 2 -0.03 2 -0.27 0.06 c-0.15 0.04 -0.34 0.02 -0.44 -0.03 -0.13 -0.09 -0.28 -0.03 -0.59 0.22 -0.93 0.75 -2.34 1.04 -3.51 0.74z"/>
  <path d="M152.17 47.46 c-0.04 -0.03 -0.07 -2.08 -0.07 -4.54 l0 -4.46 2.99 0 2.99 0 0 0.64 0 0.64 -2.24 0 -2.24 0 0 1.22 0 1.22 0.40 0.07 c0.22 0.04 1.10 0.06 1.95 0.05 0.85 -0.01 1.61 -0.02 1.69 -0.01 0.09 0.01 0.13 0.20 0.13 0.59 0 0.50 -0.03 0.58 -0.23 0.64 -0.14 0.03 -1.08 0.06 -2.08 0.06 l-1.85 0 0 1.34 0 1.34 2.38 0.02 2.37 0.03 -0.04 0.53 c-0.01 0.30 -0.05 0.57 -0.09 0.62 -0.05 0.10 -5.95 0.11 -6.05 0z"/>
  <path d="M175.53 47.37 c-0.03 -0.06 -0.03 -2.08 -0.02 -4.49 l0.03 -4.38 0.76 -0.03 0.76 -0.03 1.73 2.72 c0.94 1.50 1.83 2.89 1.94 3.11 0.13 0.20 0.26 0.37 0.30 0.37 0.03 0 0.06 -1.38 0.06 -3.07 l0 -3.08 0.73 -0.03 0.72 -0.03 0 4.50 0 4.49 -0.73 0 -0.72 0 -1.40 -2.16 c-0.78 -1.20 -1.69 -2.60 -2.03 -3.13 l-0.63 -0.96 -0.03 3.12 -0.02 3.11 -0.70 0.04 c-0.42 0.02 -0.73 -0.01 -0.75 -0.07z"/>
  <path d="M192.42 47.40 c-0.03 -0.07 -0.04 -2.11 -0.03 -4.52 l0.03 -4.38 0.69 0 0.69 0 0.03 3.88 0.02 3.87 2.09 0 2.08 0 -0.03 0.62 -0.03 0.61 -2.76 0.03 c-2.15 0.02 -2.77 0 -2.80 -0.11z"/>
  <path d="M218.33 47.33 c-0.07 -0.12 -0.12 -0.90 -0.12 -1.89 0 -1.95 0.19 -1.45 -1.84 -4.67 -0.70 -1.11 -1.30 -2.08 -1.34 -2.17 -0.04 -0.12 0.11 -0.15 0.81 -0.15 l0.87 0 0.35 0.57 c0.20 0.30 0.72 1.16 1.14 1.92 0.43 0.75 0.81 1.36 0.85 1.36 0.04 0 0.12 -0.07 0.15 -0.17 0.03 -0.10 0.53 -0.96 1.10 -1.92 l1.03 -1.75 0.84 0 c0.82 0 1.01 0.10 0.74 0.37 -0.05 0.06 -0.78 1.19 -1.60 2.50 l-1.51 2.40 0 1.85 0 1.85 -0.52 0 c-0.29 0 -0.60 0.03 -0.68 0.06 -0.10 0.03 -0.21 -0.03 -0.28 -0.16z"/>
  <path d="M147.38 43.61 l-0.03 -3.82 -1.31 -0.03 -1.30 -0.03 0 -0.63 0 -0.64 3.34 0.02 3.33 0.03 0.03 0.62 0.03 0.61 -1.29 0 -1.28 0 0 3.85 0 3.85 -0.75 0 -0.75 0 -0.02 -3.81z"/>
  <path d="M167.50 42.97 l0.03 -4.46 0.73 -0.03 0.72 -0.03 0 1.88 0 1.87 1.98 0 1.98 0 0 -1.87 0 -1.87 0.75 0 0.75 0 0 4.49 0 4.49 -0.75 0 -0.75 0 -0.02 -1.94 -0.03 -1.95 -1.39 -0.03 c-0.76 -0.02 -1.64 0 -1.94 0.03 l-0.57 0.06 0 1.92 0 1.91 -0.75 0 -0.75 0 0.02 -4.45z"/>
  <path d="M163.07 32.61 c-0.04 -0.03 -0.07 -6.07 -0.07 -13.40 l0 -13.33 1.87 0 1.87 0 0.02 11.88 0.03 11.89 5.53 0.03 5.52 0.02 0 1.50 0 1.50 -7.35 0 c-4.05 0 -7.39 -0.03 -7.42 -0.07z"/>
  <path d="M179.03 32.60 c-0.11 -0.07 -0.13 -2.82 -0.11 -13.38 l0.03 -13.29 1.87 0 1.87 0 0.03 13.29 c0.02 10.56 0 13.31 -0.11 13.38 -0.07 0.04 -0.89 0.09 -1.79 0.09 -0.91 0 -1.72 -0.04 -1.79 -0.09z"/>
  <path d="M186.88 32.18 c-0.10 -0.72 -0.10 -20.92 -0.01 -23.87 l0.07 -2.44 1.99 0 1.99 0 1.13 1.85 c0.63 1 2.16 3.49 3.41 5.52 1.25 2.03 3.02 4.91 3.95 6.41 0.92 1.50 2.19 3.58 2.82 4.61 0.63 1.05 1.20 1.92 1.25 1.95 0.05 0.04 0.10 -3.91 0.10 -10.14 l0 -10.21 1.76 0 1.76 0 0 13.40 0 13.40 -1.84 -0.02 -1.84 -0.03 -1.24 -2.03 c-0.67 -1.11 -2.05 -3.35 -3.03 -4.97 -4.58 -7.47 -7.85 -12.82 -8.17 -13.37 -0.19 -0.34 -0.40 -0.62 -0.45 -0.62 -0.05 0 -0.11 4.19 -0.12 10.50 l-0.03 10.49 -1.72 0.03 -1.72 0.02 -0.06 -0.50z"/>
  <path d="M210.17 32.62 c-0.04 -0.04 -0.07 -6.08 -0.07 -13.42 l0 -13.33 1.85 0.02 1.84 0.03 0.05 6.06 0.05 6.06 2.19 -2.69 c1.21 -1.47 2.98 -3.64 3.94 -4.82 0.96 -1.19 2.20 -2.71 2.76 -3.41 l1.01 -1.25 2.08 0 c1.29 0 2.06 0.04 2.04 0.11 -0.01 0.05 -0.68 0.89 -1.48 1.84 -4.72 5.64 -7.70 9.23 -7.75 9.35 -0.02 0.06 2.22 3.52 4.99 7.69 2.78 4.15 5.07 7.62 5.09 7.69 0.04 0.11 -0.38 0.14 -2.04 0.14 l-2.08 0 -0.21 -0.29 c-0.12 -0.17 -1.20 -1.82 -2.39 -3.66 -4.84 -7.49 -5.76 -8.87 -5.94 -8.87 -0.10 0 -0.63 0.56 -1.19 1.23 l-1.01 1.22 -0.05 5.16 -0.05 5.16 -1.77 0.03 c-0.97 0.01 -1.79 -0.01 -1.84 -0.04z"/>
 </g>
</svg>